<mxfile host="65bd71144e">
    <diagram id="Sr89QmnRuElkf7226DeY" name="Page-1">
        <mxGraphModel dx="684" dy="802" grid="1" gridSize="10" guides="1" tooltips="1" connect="1" arrows="1" fold="1" page="1" pageScale="1" pageWidth="850" pageHeight="1100" math="0" shadow="0">
            <root>
                <mxCell id="0"/>
                <mxCell id="1" parent="0"/>
                <mxCell id="2" value="Sorting Context" style="text;html=1;strokeColor=none;fillColor=none;align=left;verticalAlign=middle;whiteSpace=wrap;rounded=0;fontSize=17;" parent="1" vertex="1">
                    <mxGeometry x="40" y="50" width="240" height="30" as="geometry"/>
                </mxCell>
                <mxCell id="5" value="ISortingValueInfo" style="swimlane;fontStyle=0;childLayout=stackLayout;horizontal=1;startSize=26;fillColor=none;horizontalStack=0;resizeParent=1;resizeParentMax=0;resizeLast=0;collapsible=1;marginBottom=0;fontSize=17;" parent="1" vertex="1">
                    <mxGeometry x="415" y="250" width="140" height="52" as="geometry"/>
                </mxCell>
                <mxCell id="26" style="edgeStyle=none;html=1;exitX=0.5;exitY=0;exitDx=0;exitDy=0;fontSize=17;strokeWidth=3;rounded=0;" parent="1" source="9" edge="1">
                    <mxGeometry relative="1" as="geometry">
                        <mxPoint x="510" y="302" as="targetPoint"/>
                        <Array as="points">
                            <mxPoint x="705" y="342"/>
                            <mxPoint x="510" y="342"/>
                        </Array>
                    </mxGeometry>
                </mxCell>
                <mxCell id="30" style="edgeStyle=none;html=1;entryX=1;entryY=0.5;entryDx=0;entryDy=0;fontSize=17;exitX=1;exitY=0.5;exitDx=0;exitDy=0;endArrow=none;endFill=0;startArrow=diamondThin;startFill=0;sourcePerimeterSpacing=0;startSize=22;" parent="1" source="9" target="5" edge="1">
                    <mxGeometry relative="1" as="geometry">
                        <mxPoint x="730" y="362" as="sourcePoint"/>
                        <Array as="points">
                            <mxPoint x="850" y="398"/>
                            <mxPoint x="850" y="340"/>
                            <mxPoint x="850" y="276"/>
                            <mxPoint x="730" y="276"/>
                            <mxPoint x="680" y="276"/>
                        </Array>
                    </mxGeometry>
                </mxCell>
                <mxCell id="32" value="0..*" style="edgeLabel;html=1;align=center;verticalAlign=middle;resizable=0;points=[];fontSize=17;" parent="30" vertex="1" connectable="0">
                    <mxGeometry x="0.918" y="1" relative="1" as="geometry">
                        <mxPoint y="-15" as="offset"/>
                    </mxGeometry>
                </mxCell>
                <mxCell id="9" value="ISortingValueCollection" style="swimlane;fontStyle=0;childLayout=stackLayout;horizontal=1;startSize=26;fillColor=none;horizontalStack=0;resizeParent=1;resizeParentMax=0;resizeLast=0;collapsible=1;marginBottom=0;fontSize=17;" parent="1" vertex="1">
                    <mxGeometry x="590" y="372" width="230" height="52" as="geometry"/>
                </mxCell>
                <mxCell id="25" style="edgeStyle=none;html=1;entryX=0.5;entryY=1;entryDx=0;entryDy=0;fontSize=17;strokeWidth=3;rounded=0;" parent="1" target="5" edge="1">
                    <mxGeometry relative="1" as="geometry">
                        <Array as="points">
                            <mxPoint x="485" y="342"/>
                        </Array>
                        <mxPoint x="485" y="370" as="sourcePoint"/>
                    </mxGeometry>
                </mxCell>
                <mxCell id="10" value="ISortingValue" style="swimlane;fontStyle=0;childLayout=stackLayout;horizontal=1;startSize=26;fillColor=none;horizontalStack=0;resizeParent=1;resizeParentMax=0;resizeLast=0;collapsible=1;marginBottom=0;fontSize=17;" parent="1" vertex="1">
                    <mxGeometry x="380" y="372" width="190" height="52" as="geometry"/>
                </mxCell>
                <mxCell id="17" value="Value: object?" style="text;strokeColor=none;fillColor=none;align=left;verticalAlign=top;spacingLeft=4;spacingRight=4;overflow=hidden;rotatable=0;points=[[0,0.5],[1,0.5]];portConstraint=eastwest;fontSize=17;" parent="10" vertex="1">
                    <mxGeometry y="26" width="190" height="26" as="geometry"/>
                </mxCell>
                <mxCell id="13" value="ISortingField" style="swimlane;fontStyle=0;childLayout=stackLayout;horizontal=1;startSize=26;fillColor=none;horizontalStack=0;resizeParent=1;resizeParentMax=0;resizeLast=0;collapsible=1;marginBottom=0;fontSize=17;" parent="1" vertex="1">
                    <mxGeometry x="80" y="205" width="230" height="90" as="geometry"/>
                </mxCell>
                <mxCell id="21" value="Field: SortField" style="text;strokeColor=none;fillColor=none;align=left;verticalAlign=top;spacingLeft=4;spacingRight=4;overflow=hidden;rotatable=0;points=[[0,0.5],[1,0.5]];portConstraint=eastwest;fontSize=17;" parent="13" vertex="1">
                    <mxGeometry y="26" width="230" height="26" as="geometry"/>
                </mxCell>
                <mxCell id="23" value="Value: IFilterValueInfo?" style="text;strokeColor=none;fillColor=none;align=left;verticalAlign=top;spacingLeft=4;spacingRight=4;overflow=hidden;rotatable=0;points=[[0,0.5],[1,0.5]];portConstraint=eastwest;fontSize=17;" parent="13" vertex="1">
                    <mxGeometry y="52" width="230" height="38" as="geometry"/>
                </mxCell>
                <mxCell id="27" style="edgeStyle=none;html=1;exitX=1;exitY=0.5;exitDx=0;exitDy=0;fontSize=17;dashed=1;entryX=0;entryY=0.5;entryDx=0;entryDy=0;" parent="1" source="23" target="5" edge="1">
                    <mxGeometry relative="1" as="geometry">
                        <mxPoint x="820" y="221" as="targetPoint"/>
                        <Array as="points">
                            <mxPoint x="360" y="276"/>
                        </Array>
                    </mxGeometry>
                </mxCell>
                <mxCell id="29" style="edgeStyle=none;html=1;entryX=-0.013;entryY=0.178;entryDx=0;entryDy=0;entryPerimeter=0;dashed=1;fontSize=17;exitX=0;exitY=0.5;exitDx=0;exitDy=0;" parent="1" source="35" target="13" edge="1">
                    <mxGeometry relative="1" as="geometry">
                        <Array as="points">
                            <mxPoint x="50" y="411"/>
                            <mxPoint x="50" y="306"/>
                            <mxPoint x="50" y="220"/>
                        </Array>
                        <mxPoint x="220" y="440" as="sourcePoint"/>
                    </mxGeometry>
                </mxCell>
                <mxCell id="33" value="ISortingValue" style="swimlane;fontStyle=0;childLayout=stackLayout;horizontal=1;startSize=26;fillColor=none;horizontalStack=0;resizeParent=1;resizeParentMax=0;resizeLast=0;collapsible=1;marginBottom=0;fontSize=17;" parent="1" vertex="1">
                    <mxGeometry x="140" y="372" width="220" height="52" as="geometry"/>
                </mxCell>
                <mxCell id="35" value="GetFields(): ISortingField[]" style="text;strokeColor=none;fillColor=none;align=left;verticalAlign=top;spacingLeft=4;spacingRight=4;overflow=hidden;rotatable=0;points=[[0,0.5],[1,0.5]];portConstraint=eastwest;fontSize=17;" parent="33" vertex="1">
                    <mxGeometry y="26" width="220" height="26" as="geometry"/>
                </mxCell>
                <mxCell id="36" style="edgeStyle=none;html=1;fontSize=17;strokeWidth=3;rounded=0;exitX=0.5;exitY=0;exitDx=0;exitDy=0;" parent="1" source="33" edge="1">
                    <mxGeometry relative="1" as="geometry">
                        <Array as="points">
                            <mxPoint x="250" y="352"/>
                            <mxPoint x="440" y="352"/>
                        </Array>
                        <mxPoint x="200" y="352" as="sourcePoint"/>
                        <mxPoint x="440" y="300" as="targetPoint"/>
                    </mxGeometry>
                </mxCell>
                <mxCell id="37" value="ISortingContext" style="swimlane;fontStyle=0;childLayout=stackLayout;horizontal=1;startSize=26;fillColor=none;horizontalStack=0;resizeParent=1;resizeParentMax=0;resizeLast=0;collapsible=1;marginBottom=0;fontSize=17;" vertex="1" parent="1">
                    <mxGeometry x="130" y="510" width="370" height="104" as="geometry"/>
                </mxCell>
                <mxCell id="38" value="ToList(): IDictionary&lt;string, object?&gt;[]" style="text;strokeColor=none;fillColor=none;align=left;verticalAlign=top;spacingLeft=4;spacingRight=4;overflow=hidden;rotatable=0;points=[[0,0.5],[1,0.5]];portConstraint=eastwest;fontSize=17;" vertex="1" parent="37">
                    <mxGeometry y="26" width="370" height="26" as="geometry"/>
                </mxCell>
                <mxCell id="39" value="GetFields(): ISortingField[][]" style="text;strokeColor=none;fillColor=none;align=left;verticalAlign=top;spacingLeft=4;spacingRight=4;overflow=hidden;rotatable=0;points=[[0,0.5],[1,0.5]];portConstraint=eastwest;fontSize=17;" vertex="1" parent="37">
                    <mxGeometry y="52" width="370" height="26" as="geometry"/>
                </mxCell>
                <mxCell id="40" value="EnableSortingExecution(enabled=true):void" style="text;strokeColor=none;fillColor=none;align=left;verticalAlign=top;spacingLeft=4;spacingRight=4;overflow=hidden;rotatable=0;points=[[0,0.5],[1,0.5]];portConstraint=eastwest;fontSize=17;" vertex="1" parent="37">
                    <mxGeometry y="78" width="370" height="26" as="geometry"/>
                </mxCell>
                <mxCell id="41" style="edgeStyle=none;html=1;entryX=-0.017;entryY=0.156;entryDx=0;entryDy=0;entryPerimeter=0;dashed=1;fontSize=17;exitX=0;exitY=0.5;exitDx=0;exitDy=0;" edge="1" parent="1" target="13">
                    <mxGeometry relative="1" as="geometry">
                        <Array as="points">
                            <mxPoint x="40" y="581"/>
                            <mxPoint x="40" y="476"/>
                            <mxPoint x="40" y="220"/>
                        </Array>
                        <mxPoint x="130" y="581" as="sourcePoint"/>
                        <mxPoint x="67.00999999999999" y="391.02" as="targetPoint"/>
                    </mxGeometry>
                </mxCell>
            </root>
        </mxGraphModel>
    </diagram>
</mxfile>
